<?xml version="1.0" encoding="utf-8"?>
<!-- Generator: Adobe Illustrator 16.0.0, SVG Export Plug-In . SVG Version: 6.00 Build 0)  -->
<!DOCTYPE svg PUBLIC "-//W3C//DTD SVG 1.1//EN" "http://www.w3.org/Graphics/SVG/1.1/DTD/svg11.dtd">
<svg version="1.1" id="Layer_1" xmlns="http://www.w3.org/2000/svg" xmlns:xlink="http://www.w3.org/1999/xlink" x="0px" y="0px"
	 width="510.236px" height="510.236px" viewBox="0 0 510.236 510.236" enable-background="new 0 0 510.236 510.236"
	 xml:space="preserve">
<path fill-rule="evenodd" clip-rule="evenodd" d="M258.237,15.164C177.949,95.451,96.446,176.951,15.215,258.179
	c10.487,0,22.665,0,35.783,0c0,78.046,0,154.97,0,232.924c138.861,0,275.767,0,414.128,0c0-78.183,0-155.443,0-233.949
	c13.489,0,25.521,0,35.097,0C419.191,176.122,337.613,94.542,258.237,15.164z M257.934,69.963
	c11.57,11.608,23.009,23.088,35.436,35.558c-23.808,0-46.5,0-71.063,0C234.76,93.091,246.23,81.644,257.934,69.963z
	 M174.277,450.076c-27.44,0-53.865,0-80.99,0c0-63.757,0-126.885,0-191.111c26.514,0,53.272,0,80.99,0
	C174.277,322.104,174.277,385.557,174.277,450.076z M174.735,229.471c-25.318,0-50.155,0-73.055,0
	c23.816-23.971,48.416-48.732,73.055-73.532C174.735,179.536,174.735,204.077,174.735,229.471z M312.007,450.089
	c-36.59,0-72.193,0-108.513,0c0-63.749,0-126.88,0-191.116c35.671,0,71.605,0,108.513,0
	C312.007,322.08,312.007,385.539,312.007,450.089z M312.315,229.31c-35.899,0-71.818,0-108.643,0c0-31.197,0-62.525,0-94.634
	c36.159,0,72.072,0,108.643,0C312.315,166.281,312.315,197.284,312.315,229.31z M341.4,153.562
	c25.668,25.7,50.219,50.279,75.556,75.646c-25.168,0-49.913,0-75.556,0C341.4,204.575,341.4,179.735,341.4,153.562z
	 M422.454,449.614c-26.497,0-53.255,0-80.979,0c0-63.12,0-126.574,0-191.109c27.423,0,53.849,0,80.979,0
	C422.454,322.257,422.454,385.385,422.454,449.614z"/>
</svg>
