<?xml version="1.0" encoding="utf-8"?>
<!-- Generator: Adobe Illustrator 16.0.0, SVG Export Plug-In . SVG Version: 6.00 Build 0)  -->
<!DOCTYPE svg PUBLIC "-//W3C//DTD SVG 1.1//EN" "http://www.w3.org/Graphics/SVG/1.1/DTD/svg11.dtd">
<svg version="1.1" id="Layer_1" xmlns="http://www.w3.org/2000/svg" xmlns:xlink="http://www.w3.org/1999/xlink" x="0px" y="0px"
	 width="682.016px" height="682.016px" viewBox="-85.039 -85.039 682.016 682.016"
	 enable-background="new -85.039 -85.039 682.016 682.016" xml:space="preserve">
<title></title>
<g id="icomoon-ignore">
</g>
<path d="M516.638,587.871c-5.808,0-13.502,1.324-20.4-0.448c-4.921-1.269-11.374-5.965-12.623-10.4
	c-4.095-14.575-6.131-29.729-10.894-44.461c0,17.775,0,35.558,0,54.744c-27.57,0-52.564,0-79.526,0
	c-0.449-9.092-0.874-17.748-1.292-26.256c-8.764,6.821,2.23,32.539-21.324,25.701c3.979-43.121,7.863-85.202,11.838-128.23
	c40.677,0,81.087,0,122.238,0C508.595,501.098,512.49,543.134,516.638,587.871z M432.034,12.143
	c0.773,52.307-0.061,104.653,0.091,156.971c0.15,52.066,0.072,104.135,0.072,156.207c0,5.889-0.099,12.201,0.961,17.992
	c6.313,0.735,14.243,0.855,20.56,0.024c1.121-3.816,1.201-8.57,1.205-12.495c0.053-123.244,0.049-246.486,0.021-369.732
	c0-7.355-3.453-20.959-13.513-18.835c-10.582,2.237-9.766,16.441-9.383,24.367C432.788-18.181,431.811-3.038,432.034,12.143z
	 M504.614,445.53c2.646-29.394-7.979-49.433-30.636-64.226c-5.033-3.284-10.526-9.982-10.907-15.45
	c-0.921-13.224-9.762-14.06-18.604-14.087c-9.261-0.035-19.246-0.344-20.348,14.112c-0.418,5.473-5.918,12.141-10.961,15.41
	c-23.827,15.479-34.047,36.494-29.107,64.24C423.659,445.53,463.435,445.53,504.614,445.53z M-13.386-79.039h334.595v669.188
	H-13.386V-79.039z M195.732,88.26h83.653V4.613h-83.653V88.26z M195.732,255.556h83.653v-83.648h-83.653V255.556z M195.732,422.849
	h83.653v-83.646h-83.653V422.849z M28.439,88.26h83.647V4.613H28.439V88.26z M28.439,255.556h83.647v-83.648H28.439V255.556z
	 M28.439,422.849h83.647v-83.646H28.439V422.849z"/>
</svg>
