<?xml version="1.0" encoding="utf-8"?>
<!-- Generator: Adobe Illustrator 16.0.0, SVG Export Plug-In . SVG Version: 6.00 Build 0)  -->
<!DOCTYPE svg PUBLIC "-//W3C//DTD SVG 1.1//EN" "http://www.w3.org/Graphics/SVG/1.1/DTD/svg11.dtd">
<svg version="1.1" id="Layer_1" xmlns="http://www.w3.org/2000/svg" xmlns:xlink="http://www.w3.org/1999/xlink" x="0px" y="0px"
	 width="20px" height="20px" viewBox="0 0 20 20" enable-background="new 0 0 20 20" xml:space="preserve">
<g>
	<g>
		<g>
			<path fill="#FFC527" d="M17.904,16.181l-2.828-2.828c-0.564-0.561-1.498-0.545-2.08,0.039l-1.425,1.424
				c-0.09-0.049-0.184-0.102-0.281-0.156c-0.899-0.498-2.132-1.182-3.427-2.479c-1.301-1.299-1.984-2.532-2.484-3.433
				C5.326,8.652,5.274,8.56,5.225,8.473l0.957-0.956l0.471-0.47c0.583-0.584,0.6-1.517,0.038-2.08l-2.828-2.83
				c-0.563-0.561-1.496-0.545-2.08,0.04L0.985,2.979L1.006,3C0.74,3.342,0.516,3.735,0.35,4.16C0.197,4.563,0.101,4.948,0.058,5.334
				c-0.373,3.096,1.041,5.925,4.881,9.766c5.308,5.307,9.584,4.906,9.771,4.885c0.401-0.047,0.786-0.143,1.179-0.295
				c0.419-0.164,0.812-0.387,1.154-0.654l0.016,0.016l0.81-0.791C18.449,17.677,18.465,16.745,17.904,16.181z"/>
		</g>
	</g>
</g>
</svg>
