<?xml version="1.0" encoding="utf-8"?>
<!-- Generator: Adobe Illustrator 16.0.0, SVG Export Plug-In . SVG Version: 6.00 Build 0)  -->
<!DOCTYPE svg PUBLIC "-//W3C//DTD SVG 1.1//EN" "http://www.w3.org/Graphics/SVG/1.1/DTD/svg11.dtd">
<svg version="1.1" id="Layer_1" xmlns="http://www.w3.org/2000/svg" xmlns:xlink="http://www.w3.org/1999/xlink" x="0px" y="0px"
	 width="20px" height="20px" viewBox="0 0 20 20" enable-background="new 0 0 20 20" xml:space="preserve">
<g>
	<g id="Clock">
		<g>
			<path fill="#FFC527" d="M15.057,10.112h-3.199V6.333c0-0.482-0.391-0.873-0.871-0.873c-0.482,0-0.874,0.391-0.874,0.873v5.524
				h4.944c0.48,0,0.871-0.392,0.871-0.873C15.928,10.502,15.537,10.112,15.057,10.112z M10.984,1.97
				c-4.979,0-9.014,4.036-9.014,9.015C1.97,15.962,6.006,20,10.984,20S20,15.963,20,10.984C20,6.005,15.963,1.97,10.984,1.97z
				 M10.984,18.255c-4.009,0-7.27-3.261-7.27-7.271c0-4.008,3.26-7.271,7.27-7.271c4.009,0,7.271,3.261,7.271,7.271
				C18.256,14.994,14.993,18.255,10.984,18.255z"/>
		</g>
	</g>
</g>
</svg>
