<?xml version="1.0" encoding="utf-8"?>
<!-- Generator: Adobe Illustrator 16.0.0, SVG Export Plug-In . SVG Version: 6.00 Build 0)  -->
<!DOCTYPE svg PUBLIC "-//W3C//DTD SVG 1.1//EN" "http://www.w3.org/Graphics/SVG/1.1/DTD/svg11.dtd">
<svg version="1.1" id="Layer_1" xmlns="http://www.w3.org/2000/svg" xmlns:xlink="http://www.w3.org/1999/xlink" x="0px" y="0px"
	 width="510.236px" height="510.236px" viewBox="0 0 510.236 510.236" enable-background="new 0 0 510.236 510.236"
	 xml:space="preserve">
<path fill-rule="evenodd" clip-rule="evenodd" d="M172.571,196.758c-2.382-4.987-4.456-10.152-7.193-14.94
	c-16.357-28.627-32.911-57.144-49.299-85.751c-8.301-14.485-6.824-26.491,3.718-32.275c10.793-5.928,21.525-1.205,29.739,13.191
	c14.627,25.643,29.185,51.328,43.817,76.966c2.196,3.841,4.019,8.242,7.184,11.084c2.698,2.419,7.078,2.964,10.713,4.336
	c0.333-3.819,2.255-8.498,0.733-11.313c-7.954-14.702-16.805-28.918-25.3-43.331c-2.999-5.087-7.938-10.123-8.26-15.406
	c-0.388-6.323,1.387-16,5.61-18.496c4.303-2.541,12.826,1.513,19.263,3.466c1.806,0.547,2.842,3.833,4.105,5.94
	c62.948,105.122,125.889,210.246,188.797,315.392c1.225,2.049,2.026,4.337,3.45,7.432c-50.886,30.375-101.422,60.55-153.133,91.418
	c-20.111-33.569-41.828-64.838-58.312-98.663c-18.586-38.126-45.336-63.821-85.928-75.963c-11.668-3.493-22.462-9.931-33.623-15.098
	c-9.598-4.442-15.126-11.573-11.616-22.347c3.534-10.84,11.96-11.243,21.619-8.532c16.006,4.489,32.144,8.487,52.193,13.735
	c-4.233-6.729-5.968-11.167-9.083-14.182c-29.925-28.971-46.103-67.106-67.958-101.439c-6.075-9.542-11.982-19.232-17.306-29.207
	c-5.724-10.721-3.504-20.056,7.011-26.71c10.487-6.634,20.759-4.429,27.704,6.858c15.467,25.153,30.331,50.672,45.639,75.92
	c2.503,4.127,6.027,7.637,9.08,11.435c1.408-0.833,2.814-1.669,4.221-2.502c-1.691-4.441-2.791-9.233-5.175-13.266
	c-19.522-33.046-39.288-65.945-58.968-98.903c-2.523-4.222-5.203-8.376-7.438-12.751c-5.444-10.674-4.462-20.537,6.328-26.885
	c10.371-6.104,19.435-1.727,25.427,7.415c9.435,14.396,17.955,29.389,26.802,44.171c13.898,23.219,27.671,46.521,41.669,69.681
	c2.614,4.332,6.033,8.177,9.079,12.244C169.441,198.578,171.005,197.668,172.571,196.758z"/>
<path fill-rule="evenodd" clip-rule="evenodd" d="M407.71,414.44c-47.206-78.878-93.412-156.083-139.615-233.288
	c-6.064-10.132-11.146-21.038-18.374-30.247c-18.003-22.937-22.883-49.217-22.738-77.333c0.077-14.666,5.784-22.415,18.546-23.345
	c13.677-1.001,20.83,5.913,21.869,21.564c1.89,28.483,3.514,56.983,5.512,85.455c0.338,4.871,1.988,9.647,3.033,14.469
	c1.538-0.087,3.072-0.175,4.606-0.265c0.551-5.337,1.829-10.713,1.53-15.999c-2.174-38.325-4.672-76.624-7.07-114.939
	c-0.214-3.437-0.607-6.873-0.675-10.307c-0.277-14.479,6.795-24.048,18.271-23.7c13.572,0.406,18.509,9.394,19.278,21.563
	c1.996,31.435,3.879,62.872,5.843,94.307c0.799,12.768,1.553,25.544,2.628,38.293c0.339,4.052,1.652,8.024,2.522,12.027
	c1.464-0.059,2.93-0.12,4.392-0.183c0.421-5.845,1.401-11.711,1.164-17.534c-1.331-32.946-3.11-65.872-4.414-98.818
	c-0.666-16.818,6.32-26.192,18.69-26.277c12.168-0.085,18.958,8.993,19.577,25.967c1.028,28.036,2.06,56.065,3.236,84.094
	c0.247,5.889,0.466,11.92,1.96,17.557c0.818,3.08,4.278,5.463,6.544,8.157c2.289-3.119,6.496-6.219,6.533-9.367
	c0.155-12.773-0.92-25.561-1.645-38.336c-0.444-7.858-1.112-15.708-1.59-23.566c-0.629-10.317,1.628-19.493,13.738-20.462
	c12.193-0.975,15.764,7.465,16.405,18.054c2.155,35.368,4.491,70.724,6.681,106.086c5.261,84.98,10.484,169.959,15.67,254.942
	c0.271,4.382,0.037,8.791,0.037,15.387c-39.898,2.519-79.611,5.023-119.328,7.523c-0.296-0.862-0.595-1.731-0.892-2.6
	C341.86,453.976,374.08,434.627,407.71,414.44z"/>
</svg>
