<?xml version="1.0" encoding="utf-8"?>
<!-- Generator: Adobe Illustrator 16.0.0, SVG Export Plug-In . SVG Version: 6.00 Build 0)  -->
<!DOCTYPE svg PUBLIC "-//W3C//DTD SVG 1.1//EN" "http://www.w3.org/Graphics/SVG/1.1/DTD/svg11.dtd">
<svg version="1.1" id="Layer_1" xmlns="http://www.w3.org/2000/svg" xmlns:xlink="http://www.w3.org/1999/xlink" x="0px" y="0px"
	 width="510.236px" height="510.236px" viewBox="0 0 510.236 510.236" enable-background="new 0 0 510.236 510.236"
	 xml:space="preserve">
<path fill-rule="evenodd" clip-rule="evenodd" d="M155.718,254.736c19.369-11.183,37.368-21.571,55.366-31.964
	c24.953-14.409,49.967-28.715,74.802-43.323c4.738-2.787,8.384-3.043,13.265-0.11c18.552,11.147,37.391,21.817,57.07,33.212
	c-3.045,2-5.26,3.62-7.621,4.984c-41.011,23.694-82.01,47.41-123.139,70.894c-2.496,1.425-6.849,2.351-9.027,1.146
	C196.488,278.525,176.833,266.952,155.718,254.736z"/>
<path fill-rule="evenodd" clip-rule="evenodd" d="M355.511,129.602c-44.709,25.828-87.953,50.866-131.313,75.695
	c-2.022,1.16-5.691,1.562-7.579,0.506c-19.917-11.149-39.627-22.667-60.151-34.519c1.953-1.505,3.263-2.772,4.796-3.659
	c41.546-24,83.09-48.006,124.745-71.817c2.336-1.335,6.366-2.349,8.351-1.247C314.548,105.772,334.476,117.453,355.511,129.602z"/>
<path fill-rule="evenodd" clip-rule="evenodd" d="M356.719,296.708c-15.095,8.736-28.862,16.714-42.641,24.666
	c-28.927,16.703-57.901,33.32-86.75,50.16c-4.409,2.573-7.832,2.874-12.448,0.085c-16.369-9.888-33.062-19.243-49.605-28.843
	c-2.382-1.384-4.622-3.01-7.768-5.076c22.339-12.935,43.769-25.359,65.216-37.754c21.51-12.426,42.98-24.924,64.644-37.077
	c2.459-1.378,6.795-2.029,9.025-0.789C316.102,273.012,335.531,284.45,356.719,296.708z"/>
<path fill-rule="evenodd" clip-rule="evenodd" d="M500.828,213.534c-21.039,12.159-40.749,23.561-60.472,34.941
	c-23.254,13.42-46.472,26.899-69.84,40.116c-2.313,1.309-6.283,2.303-8.246,1.213c-20.169-11.194-40.081-22.852-61.111-34.979
	c18.229-10.597,35.447-20.66,52.718-30.638c25.227-14.574,50.559-28.971,75.681-43.728c4.947-2.905,8.691-3.382,13.909-0.228
	C461.973,191.416,480.843,202,500.828,213.534z"/>
<path fill-rule="evenodd" clip-rule="evenodd" d="M211.36,296.711c-26.818,15.491-52.22,30.172-77.628,44.84
	c-17.293,9.985-34.688,19.8-51.833,30.032c-4.54,2.709-7.942,2.565-12.431-0.104c-18.801-11.186-37.833-21.988-57.885-33.566
	c18.476-10.658,35.7-20.582,52.913-30.524c25.443-14.693,50.959-29.263,76.248-44.218c4.859-2.876,8.415-2.695,13.142,0.132
	C172.472,274.407,191.305,285.105,211.36,296.711z"/>
<path fill-rule="evenodd" clip-rule="evenodd" d="M12.724,253.375c22.455-12.968,44.642-25.781,66.83-38.597
	c20.276-11.709,40.664-23.233,60.752-35.258c5.138-3.078,8.886-2.893,13.921,0.126c18.351,11.005,36.995,21.516,56.605,32.836
	c-2.6,1.743-4.473,3.163-6.492,4.329c-40.796,23.569-81.572,47.173-122.503,70.509c-2.745,1.564-7.522,2.563-9.933,1.241
	c-19.259-10.589-38.181-21.793-57.181-32.85C14.065,255.326,13.665,254.497,12.724,253.375z"/>
<path fill-rule="evenodd" clip-rule="evenodd" d="M500.891,129.604c-14.448,8.302-27.715,15.899-40.955,23.543
	c-29.646,17.119-59.323,34.184-88.861,51.489c-4.163,2.439-7.248,2.67-11.528,0.12c-18.854-11.242-37.95-22.08-58.222-33.793
	c6.309-3.733,11.715-6.999,17.183-10.158c37.303-21.546,74.661-43,111.873-64.699c4.451-2.596,7.778-2.949,12.39-0.195
	C461.584,107.147,480.668,117.936,500.891,129.604z"/>
<path fill-rule="evenodd" clip-rule="evenodd" d="M210.144,129.653c-44.288,25.5-87.057,50.18-129.942,74.655
	c-2.091,1.195-5.829,1.743-7.733,0.679c-19.65-10.956-39.081-22.307-59.59-34.134c14.508-8.446,27.995-16.357,41.539-24.17
	c28.933-16.693,57.959-33.226,86.777-50.112c4.562-2.671,7.815-2.587,12.3,0.104C171.817,107.662,190.4,118.214,210.144,129.653z"/>
<path fill-rule="evenodd" clip-rule="evenodd" d="M302.39,337.884c44.23-25.505,87.219-50.354,130.338-74.976
	c1.996-1.142,5.714-1.245,7.684-0.146c19.42,10.847,38.637,22.051,58.823,33.681c-2.747,1.772-4.749,3.188-6.861,4.41
	c-39.773,23.033-79.621,45.938-119.273,69.181c-5.542,3.246-9.692,3.726-15.413,0.221
	C339.955,359.389,321.816,349.187,302.39,337.884z"/>
<path fill-rule="evenodd" clip-rule="evenodd" d="M506.375,306.559c0,15.961,0.196,30.791-0.188,45.608
	c-0.065,2.541-1.967,6.123-4.103,7.369c-43.1,25.133-86.356,49.998-129.595,74.894c-0.453,0.261-1.065,0.246-2.843,0.62
	c0-16.295-0.125-32.35,0.189-48.397c0.033-1.638,2.414-3.729,4.197-4.762c42.68-24.727,85.428-49.341,128.182-73.947
	C503.139,307.414,504.273,307.246,506.375,306.559z"/>
<path fill-rule="evenodd" clip-rule="evenodd" d="M70.26,436.223c-21.375-12.341-40.926-23.56-60.357-34.983
	c-1.66-0.978-3.558-3.299-3.589-5.026c-0.276-15.61-0.162-31.229-0.162-48.693c9.147,5.304,16.922,9.823,24.713,14.319
	c9.154,5.28,17.953,11.379,27.583,15.573c10.05,4.377,12.786,10.999,12.016,21.334C69.584,410.587,70.26,422.542,70.26,436.223z"/>
<path fill-rule="evenodd" clip-rule="evenodd" d="M360.8,436.093c-21.333-12.281-41.092-23.566-60.701-35.105
	c-1.58-0.932-2.992-3.601-3.021-5.487c-0.24-15.369-0.137-30.742-0.137-47.605c5.716,3.163,10.372,5.666,14.953,8.293
	c14.342,8.225,28.599,16.595,43.014,24.682c4.093,2.298,6.18,4.816,6.035,9.94C360.536,405.322,360.8,419.851,360.8,436.093z"/>
<path fill-rule="evenodd" clip-rule="evenodd" d="M215.521,436.143c-21.601-12.44-41.347-23.726-60.939-35.271
	c-1.52-0.896-2.75-3.61-2.778-5.498c-0.222-15.322-0.125-30.646-0.125-47.538c6.212,3.502,11.323,6.33,16.385,9.247
	c13.819,7.964,27.529,16.123,41.477,23.856c4.218,2.336,6.208,4.897,6.094,9.94C215.309,405.364,215.521,419.857,215.521,436.143z"
	/>
<path fill-rule="evenodd" clip-rule="evenodd" d="M224.063,436.28c0-16.852-0.064-32.158,0.108-47.464
	c0.016-1.408,1.188-3.396,2.408-4.111c20.112-11.772,40.318-23.387,61.737-35.75c0,16.845,0.063,32.143-0.1,47.438
	c-0.015,1.387-1.104,3.356-2.286,4.049C265.839,412.207,245.655,423.816,224.063,436.28z"/>
<path fill-rule="evenodd" clip-rule="evenodd" d="M78.649,436.315c0-16.819-0.109-31.615,0.136-46.404
	c0.032-1.9,1.423-4.595,3.005-5.529c19.803-11.697,39.755-23.137,60.986-35.402c0,16.757,0.085,32.012-0.127,47.262
	c-0.023,1.561-1.455,3.723-2.856,4.549C119.972,412.45,100.044,423.928,78.649,436.315z"/>
<path fill-rule="evenodd" clip-rule="evenodd" d="M6.169,263.53c19.336,11.188,37.021,21.422,56.049,32.435
	c-14.921,8.601-28.688,16.813-42.755,24.48c-4.183,2.277-13.125-3.671-13.203-8.575C6.015,296.286,6.169,280.695,6.169,263.53z"/>
<path fill-rule="evenodd" clip-rule="evenodd" d="M6.142,179.639c19.527,11.301,37.378,21.632,56.048,32.437
	c-14.24,8.232-27.439,16.038-40.821,23.518c-5.75,3.215-15.023-1.718-15.138-8.109C5.955,212.183,6.142,196.873,6.142,179.639z"/>
<path fill-rule="evenodd" clip-rule="evenodd" d="M450.209,171.515c19.299-11.126,37.028-21.347,56.097-32.339
	c0,16.707,0.201,31.984-0.116,47.253c-0.104,4.955-10.785,11.038-15.117,8.642C477.88,187.77,464.923,180.042,450.209,171.515z"/>
<path fill-rule="evenodd" clip-rule="evenodd" d="M450.063,255.51c19.259-11.093,37.141-21.392,56.311-32.43
	c0,16.616,0.206,31.617-0.105,46.603c-0.124,6.013-10.655,11.672-16.067,8.696C477.257,271.27,464.521,263.785,450.063,255.51z"/>
</svg>
