<?xml version="1.0" encoding="utf-8"?>
<!-- Generator: Adobe Illustrator 16.0.0, SVG Export Plug-In . SVG Version: 6.00 Build 0)  -->
<!DOCTYPE svg PUBLIC "-//W3C//DTD SVG 1.1//EN" "http://www.w3.org/Graphics/SVG/1.1/DTD/svg11.dtd">
<svg version="1.1" id="Layer_1" xmlns="http://www.w3.org/2000/svg" xmlns:xlink="http://www.w3.org/1999/xlink" x="0px" y="0px"
	 width="24px" height="24px" viewBox="0 0 24 24" enable-background="new 0 0 24 24" xml:space="preserve">
<g>
	<path fill="#AAAAAA" d="M17,23H7c-3.309,0-6-2.691-6-6V7c0-3.309,2.691-6,6-6h10c3.309,0,6,2.691,6,6v10C23,20.309,20.309,23,17,23
		z M7,3C4.794,3,3,4.794,3,7v10c0,2.206,1.794,4,4,4h10c2.206,0,4-1.794,4-4V7c0-2.206-1.794-4-4-4H7z"/>
</g>
<g>
	<path fill="#AAAAAA" d="M12.041,16.957c-2.457,0-4.582-1.834-4.943-4.268c-0.404-2.727,1.486-5.274,4.213-5.679
		c0.484-0.072,0.981-0.073,1.468,0c2.193,0.324,3.887,2.017,4.211,4.212c0.404,2.727-1.485,5.274-4.213,5.68
		C12.529,16.939,12.283,16.957,12.041,16.957z M12.044,8.957c-0.146,0-0.293,0.011-0.439,0.033
		c-1.637,0.243-2.771,1.771-2.528,3.407c0.238,1.605,1.764,2.768,3.408,2.528c1.636-0.243,2.77-1.771,2.527-3.408
		c-0.194-1.317-1.21-2.333-2.527-2.528C12.337,8.967,12.19,8.957,12.044,8.957z"/>
</g>
<g>
	<path fill="#AAAAAA" d="M17.5,7.5c-0.26,0-0.521-0.11-0.71-0.29C16.609,7.02,16.5,6.76,16.5,6.5c0-0.26,0.109-0.52,0.29-0.71
		c0.38-0.37,1.05-0.37,1.42,0c0.18,0.19,0.29,0.45,0.29,0.71c0,0.26-0.11,0.52-0.29,0.71C18.02,7.39,17.76,7.5,17.5,7.5z"/>
</g>
</svg>
