<!-- Generated by IcoMoon.io -->
<svg version="1.1" xmlns="http://www.w3.org/2000/svg" width="1476" height="1024" viewBox="0 0 1476 1024">
<title></title>
<g id="icomoon-ignore">
</g>
<path fill="#000" d="M406.454 769.654c-25.486 0-46.224 20.738-46.224 46.224s20.735 46.224 46.224 46.224 46.224-20.735 46.224-46.224c-0.002-25.483-20.738-46.224-46.224-46.224z"></path>
<path fill="#000" d="M1324.528 664.459c-31.047 0-59.935 9.407-83.988 25.503h-31.565l-54.034-72.049c-14.076-18.762-36.475-29.961-59.93-29.961h-54.336c1.096-4.612 1.738-9.399 1.738-14.343s-0.642-9.734-1.738-14.346h3.332c41.307 0 74.913-33.606 74.913-74.913v-59.035c0-51.237-38.399-94.141-89.324-99.799l-306.027-34.003c-28.347-3.151-56.801 5.953-78.055 24.98-21.256 19.025-33.445 46.296-33.445 74.824v93.038c0 41.307 33.606 74.913 74.911 74.913h3.332c-1.096 4.612-1.736 9.399-1.736 14.343s0.64 9.732 1.736 14.346h-54.334c-17.599 0-34.6 6.305-47.94 17.376l-455.355-551.207c-26.287-31.843-73.597-36.361-105.47-10.064-15.429 12.742-24.968 30.727-26.869 50.65-1.897 19.92 4.079 39.388 16.82 54.81l430.023 520.554c-12.97-3.627-26.624-5.611-40.737-5.611-83.492 0-151.418 67.926-151.418 151.418s67.926 151.418 151.418 151.418c31.047 0 59.935-9.407 83.988-25.501h750.099c24.050 16.094 52.941 25.501 83.988 25.501 83.492 0 151.418-67.926 151.418-151.418s-67.924-151.423-151.416-151.423zM994.597 573.609c0 7.907-6.437 14.343-14.346 14.343h-229.517c-7.912 0-14.343-6.434-14.343-14.343s6.437-14.346 14.343-14.346h229.517c7.909 0 14.346 6.437 14.346 14.346zM635.971 635.768h459.040c8.482 0 16.587 4.054 21.678 10.84l32.513 43.353h-514.943c0.335-16.957-5.026-33.904-15.831-47.714 4.855-4.116 11.085-6.479 17.544-6.479zM406.454 919.48c-57.126 0-103.603-46.474-103.603-103.603 0-57.123 46.477-103.6 103.603-103.6 57.123 0 103.603 46.477 103.603 103.6 0 57.126-46.479 103.603-103.603 103.603zM1324.528 919.48c-57.123 0-103.6-46.477-103.6-103.603 0-57.123 46.477-103.6 103.6-103.6 57.126 0 103.603 46.477 103.603 103.6 0 57.126-46.477 103.603-103.603 103.603z"></path>
<path fill="#000" d="M1324.528 769.654c-25.483 0-46.224 20.738-46.224 46.224s20.738 46.224 46.224 46.224c25.486 0 46.224-20.735 46.224-46.224 0-25.483-20.735-46.224-46.224-46.224z"></path>
</svg>
