<?xml version="1.0" encoding="utf-8"?>
<!-- Generator: Adobe Illustrator 16.0.0, SVG Export Plug-In . SVG Version: 6.00 Build 0)  -->
<!DOCTYPE svg PUBLIC "-//W3C//DTD SVG 1.1//EN" "http://www.w3.org/Graphics/SVG/1.1/DTD/svg11.dtd">
<svg version="1.1" id="Layer_1" xmlns="http://www.w3.org/2000/svg" xmlns:xlink="http://www.w3.org/1999/xlink" x="0px" y="0px"
	 width="20px" height="20px" viewBox="0 0 20 20" enable-background="new 0 0 20 20" xml:space="preserve">
<path fill="#FFFFFF" d="M18.5,18h-17C0.673,18,0,17.327,0,16.5v-13C0,2.673,0.673,2,1.5,2h17C19.327,2,20,2.673,20,3.5v13
	C20,17.327,19.327,18,18.5,18z M1.5,3C1.224,3,1,3.224,1,3.5v13C1,16.775,1.224,17,1.5,17h17c0.275,0,0.5-0.225,0.5-0.5v-13
	C19,3.224,18.775,3,18.5,3H1.5z"/>
<path fill="#FFFFFF" d="M9.5,6h-6C3.224,6,3,5.776,3,5.5S3.224,5,3.5,5h6C9.776,5,10,5.224,10,5.5S9.776,6,9.5,6z"/>
<path fill="#FFFFFF" d="M9.5,9h-6C3.224,9,3,8.776,3,8.5S3.224,8,3.5,8h6C9.776,8,10,8.224,10,8.5S9.776,9,9.5,9z"/>
<path fill="#FFFFFF" d="M9.5,11h-6C3.224,11,3,10.775,3,10.5C3,10.224,3.224,10,3.5,10h6c0.276,0,0.5,0.224,0.5,0.5
	C10,10.775,9.776,11,9.5,11z"/>
<path fill="#FFFFFF" d="M9.5,13h-6C3.224,13,3,12.775,3,12.5S3.224,12,3.5,12h6c0.276,0,0.5,0.225,0.5,0.5S9.776,13,9.5,13z"/>
<path fill="#FFFFFF" d="M8.5,15h-5C3.224,15,3,14.775,3,14.5S3.224,14,3.5,14h5C8.776,14,9,14.225,9,14.5S8.776,15,8.5,15z"/>
<path fill="#FFFFFF" d="M17.943,6.544L17.13,5.953l-0.312-0.956h-1.004l-0.813-0.591l-0.813,0.591h-1.004l-0.312,0.956l-0.813,0.591
	L12.37,7.5l-0.312,0.956l0.813,0.591l0.132,0.406c-0.002,0.016-0.002,0.031-0.002,0.047v5c0,0.202,0.122,0.385,0.309,0.462
	c0.188,0.077,0.402,0.035,0.545-0.108l1.146-1.146l1.146,1.146c0.096,0.097,0.223,0.147,0.354,0.146
	c0.064,0,0.129-0.012,0.191-0.038c0.187-0.077,0.309-0.26,0.309-0.462v-5c0-0.016-0.001-0.032-0.002-0.047l0.132-0.406l0.813-0.591
	L17.634,7.5l0.312-0.956H17.943z M13.232,6.926l0.488-0.354l0.188-0.574h0.604L15,5.642l0.488,0.355h0.604l0.188,0.574l0.488,0.354
	L16.58,7.5l0.188,0.574l-0.488,0.354l-0.188,0.574h-0.604L15,9.358l-0.488-0.355h-0.604l-0.188-0.574l-0.488-0.354L13.42,7.5
	L13.232,6.926z M15.354,12.646c-0.194-0.195-0.512-0.195-0.707,0l-0.646,0.646v-3.29h0.187l0.813,0.591l0.813-0.591h0.187v3.29
	l-0.646-0.646H15.354z"/>
</svg>
