<?xml version="1.0" encoding="utf-8"?>
<!-- Generator: Adobe Illustrator 16.0.0, SVG Export Plug-In . SVG Version: 6.00 Build 0)  -->
<!DOCTYPE svg PUBLIC "-//W3C//DTD SVG 1.1//EN" "http://www.w3.org/Graphics/SVG/1.1/DTD/svg11.dtd">
<svg version="1.1" id="Layer_1" xmlns="http://www.w3.org/2000/svg" xmlns:xlink="http://www.w3.org/1999/xlink" x="0px" y="0px"
	 width="613.469px" height="511.938px" viewBox="0 0 613.469 511.938" enable-background="new 0 0 613.469 511.938"
	 xml:space="preserve">
<title></title>
<g id="icomoon-ignore">
</g>
<g>
	<path d="M587.952,176.805c-14.295-26.903-33.698-41.72-54.635-41.72H344.195c-0.067,0-0.135,0.001-0.203,0.002l-25.856-46.544
		C314.64,82.256,308,78.35,300.809,78.35h-31.153c-5.63,0-11.013,2.406-14.768,6.602c-3.755,4.195-5.553,9.811-4.932,15.408
		l3.857,34.727H79.426c-42.929,0-76.556,62.704-76.556,142.751c0,80.047,33.627,142.751,76.556,142.751h453.892
		c42.928,0,76.555-62.704,76.555-142.751C609.872,239.289,602.088,203.408,587.952,176.805z M79.426,155.817
		c13.352,0,27.033,12.044,37.535,33.045c11.796,23.595,18.292,55.193,18.292,88.975c0,33.785-6.496,65.384-18.292,88.974
		c-10.501,21.001-24.182,33.045-37.535,33.045c-13.354,0-27.035-12.044-37.534-33.045c-11.798-23.597-18.295-55.195-18.295-88.974
		c0-33.784,6.497-65.382,18.295-88.975C52.392,167.862,66.073,155.817,79.426,155.817z M533.318,399.855H119.79
		c22.716-25.683,36.192-70.921,36.192-122.019c0-51.095-13.477-96.334-36.192-122.02h136.326l2.127,19.147
		c0.627,5.638,5.681,9.799,11.446,9.157c2.752-0.306,5.219-1.666,6.948-3.827c1.729-2.162,2.512-4.868,2.206-7.618l-8.177-73.597
		h29.603l44.318,79.774c1.827,3.289,5.302,5.333,9.069,5.333c1.752,0,3.489-0.451,5.024-1.305c4.996-2.777,6.802-9.1,4.027-14.095
		l-7.206-12.971h177.811c13.354,0,27.033,12.044,37.533,33.045c11.797,23.598,18.294,55.196,18.294,88.975
		c0,33.783-6.497,65.382-18.294,88.974C560.35,387.811,546.671,399.855,533.318,399.855z"/>
	<path d="M42.38,307.415c0.614,5.217,5.035,9.15,10.283,9.15c0.401,0,0.814-0.024,1.222-0.073c2.748-0.321,5.206-1.694,6.921-3.866
		c1.716-2.173,2.483-4.885,2.158-7.636c-1.022-8.684-1.541-17.82-1.541-27.153c0-53.105,14.957-74.443,18.002-74.741
		c5.715,0,10.365-4.649,10.365-10.365c0-5.714-4.649-10.363-10.365-10.363c-8.769,0-21.073,5.554-29.891,32.014
		c-5.701,17.098-8.841,39.634-8.841,63.455C40.694,287.98,41.261,297.933,42.38,307.415z"/>
	<path d="M97.429,277.835c0,52.615-14.681,74.042-17.916,74.725c-0.533-0.246-4.132-2.25-8.357-12.531
		c-1.605-3.905-5.37-6.429-9.589-6.429c-1.353,0-2.677,0.263-3.938,0.78c-2.562,1.052-4.56,3.038-5.626,5.594
		c-1.066,2.555-1.074,5.372-0.021,7.934c8.628,20.991,19.686,25.397,27.443,25.397c8.384,0,20-5.077,28.709-28.645l0.038,0.076
		l1.148-3.443c5.7-17.1,8.839-39.637,8.839-63.461c0-13.854-1.039-27.148-3.086-39.515c-0.833-5.024-5.133-8.671-10.223-8.671
		c-0.565,0-1.137,0.047-1.7,0.14c-5.638,0.934-9.466,6.281-8.532,11.92C96.483,252.956,97.429,265.11,97.429,277.835z"/>
	<path d="M502.821,223.228c-1.958-1.958-4.561-3.036-7.328-3.036h-28.365c-5.716,0-10.365,4.649-10.365,10.364
		c0,5.714,4.649,10.363,10.365,10.363h28.365c5.714,0,10.362-4.649,10.362-10.363C505.856,227.789,504.778,225.186,502.821,223.228z
		"/>
	<path d="M259.092,240.92h170.209c5.716,0,10.365-4.648,10.365-10.362c0-5.715-4.649-10.364-10.365-10.364H259.092
		c-5.715,0-10.365,4.649-10.365,10.364C248.727,236.271,253.377,240.92,259.092,240.92z"/>
	<path d="M192.898,240.92h28.372c5.713,0,10.362-4.648,10.362-10.362c0-5.715-4.648-10.364-10.362-10.364h-28.372
		c-5.715,0-10.365,4.649-10.365,10.364C182.532,236.271,187.182,240.92,192.898,240.92z"/>
	<path d="M542.772,267.473h-28.367c-5.714,0-10.363,4.649-10.363,10.364s4.649,10.364,10.363,10.364h28.367
		c5.715,0,10.364-4.649,10.364-10.364c0.001-2.769-1.077-5.371-3.035-7.329C548.143,268.551,545.54,267.473,542.772,267.473z"/>
	<path d="M476.583,267.473h-18.919c-5.715,0-10.364,4.649-10.364,10.364s4.649,10.364,10.364,10.364h18.919
		c5.714,0,10.362-4.649,10.362-10.364S482.297,267.473,476.583,267.473z"/>
	<path d="M419.848,267.473H202.355c-5.715,0-10.365,4.649-10.365,10.364s4.65,10.364,10.365,10.364h217.493
		c5.715,0,10.364-4.649,10.364-10.364S425.563,267.473,419.848,267.473z"/>
	<path d="M457.668,314.751H334.74c-5.715,0-10.364,4.65-10.364,10.366c0,5.714,4.649,10.363,10.364,10.363h122.928
		c5.715,0,10.364-4.649,10.364-10.363C468.031,319.401,463.382,314.751,457.668,314.751z"/>
	<path d="M296.915,314.751h-18.907c-5.715,0-10.364,4.65-10.364,10.366c0,5.714,4.649,10.363,10.364,10.363h18.907
		c5.714,0,10.363-4.649,10.363-10.363C307.279,319.401,302.629,314.751,296.915,314.751z"/>
	<path d="M230.723,314.751h-47.281c-5.715,0-10.365,4.65-10.365,10.366c0,5.714,4.649,10.363,10.365,10.363h47.281
		c5.715,0,10.365-4.649,10.365-10.363C241.088,319.401,236.438,314.751,230.723,314.751z"/>
</g>
</svg>
