<?xml version="1.0" encoding="utf-8"?>
<!-- Generator: Adobe Illustrator 16.0.0, SVG Export Plug-In . SVG Version: 6.00 Build 0)  -->
<!DOCTYPE svg PUBLIC "-//W3C//DTD SVG 1.1//EN" "http://www.w3.org/Graphics/SVG/1.1/DTD/svg11.dtd">
<svg version="1.1" id="Layer_1" xmlns="http://www.w3.org/2000/svg" xmlns:xlink="http://www.w3.org/1999/xlink" x="0px" y="0px"
	 width="24px" height="24px" viewBox="0 0 24 24" enable-background="new 0 0 24 24" xml:space="preserve">
<g>
	<path fill="#FFC527" d="M12,0C6.486,0,2,4.486,2,10c0,7.449,9.06,13.575,9.445,13.832C11.613,23.944,11.807,24,12,24
		s0.387-0.056,0.555-0.168C12.94,23.575,22,17.449,22,10C22,4.486,17.514,0,12,0z M12,21.771C10.103,20.363,4,15.413,4,10
		c0-4.411,3.589-8,8-8s8,3.589,8,8C20,15.413,13.897,20.363,12,21.771z"/>
	<path fill="#FFC527" d="M12,6c-2.206,0-4,1.794-4,4s1.794,4,4,4c2.206,0,4-1.794,4-4S14.206,6,12,6z M12,12c-1.103,0-2-0.897-2-2
		s0.897-2,2-2c1.103,0,2,0.897,2,2S13.103,12,12,12z"/>
</g>
</svg>
