<?xml version="1.0" encoding="utf-8"?>
<!-- Generator: Adobe Illustrator 16.0.0, SVG Export Plug-In . SVG Version: 6.00 Build 0)  -->
<!DOCTYPE svg PUBLIC "-//W3C//DTD SVG 1.1//EN" "http://www.w3.org/Graphics/SVG/1.1/DTD/svg11.dtd">
<svg version="1.1" id="Layer_1" xmlns="http://www.w3.org/2000/svg" xmlns:xlink="http://www.w3.org/1999/xlink" x="0px" y="0px"
	 width="595.28px" height="595.275px" viewBox="0 0 595.28 595.275" enable-background="new 0 0 595.28 595.275"
	 xml:space="preserve">
<path fill-rule="evenodd" clip-rule="evenodd" d="M562.165,22.236c-20.746-15.902-50.271-14.191-68.53,4.056
	c-76.267,76.213-152.498,152.458-228.767,228.668c-78.55,78.49-157.111,156.97-235.711,235.408
	c-10.732,10.71-17.153,23.207-17.32,40.215c0.169,1.809,0.153,5.282,0.861,8.603c4.4,20.642,16.531,34.821,36.704,41.053
	c21.043,6.498,39.452,0.57,54.761-14.716C257.755,412.167,411.289,258.75,564.743,105.253c4.365-4.365,8.215-9.476,11.342-14.805
	C589.477,67.639,583.375,38.496,562.165,22.236z M65.07,547.267c-9.528,0.056-17.694-7.988-17.818-17.553
	c-0.123-9.431,8.061-17.61,17.638-17.631c9.93-0.021,17.581,7.545,17.61,17.414C82.529,539.238,74.709,547.211,65.07,547.267z
	 M89.723,481.352c3.595-3.631,7.832-7.911,13.331-13.463c3.066,11.505,5.948,22.325,9.037,33.918
	C103.721,494.153,96.682,487.717,89.723,481.352z M133.571,485.329c-4.329-11.476-8.672-22.988-13.086-34.685
	c4.113-4.008,8.957-8.73,14.914-14.538c2.426,9.203,4.442,18.486,7.356,27.478C146.121,473.971,141.218,480.226,133.571,485.329z
	 M165.724,452.937c-4.345-11.485-8.703-23.004-13.076-34.562c4.338-4.52,9.286-9.674,15.558-16.208
	c2.447,9.889,4.416,18.711,6.837,27.41C177.938,439.976,175.123,447.867,165.724,452.937z M198.446,420.38
	c-4.066-11.609-8.181-23.357-12.869-36.739c2.679-2.491,6.212-5.77,9.738-9.056c1.168-1.089,2.318-2.199,4.192-3.979
	c1.341,3.309,2.816,6.054,3.571,8.986c1.599,6.207,2.503,12.606,4.271,18.76C210.201,408.276,206.895,415.399,198.446,420.38z
	 M230.698,388.273c-4.051-11.652-8.145-23.431-12.582-36.196c4.059-3.807,8.73-8.189,14.042-13.173
	c1.475,4.118,3.279,8.228,4.397,12.512c1.316,5.046,1.556,10.396,3.117,15.345C242.821,376.75,238.508,383.236,230.698,388.273z
	 M263.279,356.86c-4.497-12.787-8.65-24.595-12.683-36.063c4.137-4.423,8.612-9.206,13.499-14.428
	c5.973,12.603,8.484,25.612,8.44,38.728C272.522,348.982,266.605,352.847,263.279,356.86z M304.56,312.254
	c-0.179,4.301-5.729,8.376-8.688,12.371c-4.784-12.05-9.234-23.109-13.494-34.24c-0.365-0.954,0.174-2.705,0.908-3.547
	c3.821-4.386,7.841-8.598,12.645-13.792C301.952,286.808,305.094,299.394,304.56,312.254z M327.768,291.356
	c-4.303-10.967-8.71-22.052-12.932-33.207c-0.374-0.989,0.064-2.796,0.801-3.607c3.899-4.278,8.014-8.358,12.052-12.506
	c0.684,0.064,1.368,0.126,2.051,0.19c2.136,8.834,4.278,17.667,6.391,26.507c0.186,0.774,0.013,1.652,0.271,2.389
	C339.896,281.037,334.505,286.896,327.768,291.356z M369.636,248.364c-0.241,4.066-6.188,7.792-9.698,11.88
	c-4.415-12.649-8.54-24.465-12.736-36.493c4.442-4.535,9.455-9.653,15.005-15.318C367.622,221.514,370.439,234.833,369.636,248.364z
	 M393.056,225.936c-4.024-11.037-8.167-22.262-12.145-33.547c-0.367-1.041-0.105-2.857,0.606-3.634
	c3.896-4.251,8.021-8.29,12.069-12.401c0.738,0.085,1.478,0.169,2.218,0.254c1.963,10.112,4.338,20.166,5.782,30.352
	C403.202,218.349,402.188,219.747,393.056,225.936z M434.134,183.308c-0.172,3.952-5.485,7.682-9.387,12.736
	c-1.551-6.376-2.382-11.062-3.854-15.539c-2.054-6.26-4.36-12.46-7.009-18.49c-1.19-2.713-1.601-4.474,0.84-6.72
	c3.812-3.505,7.231-7.432,11.681-12.085C432.063,157.086,434.703,170.096,434.134,183.308z M457.628,161.779
	c-4.172-11.417-8.339-22.613-12.265-33.893c-0.391-1.125,0.301-3.124,1.176-4.105c4.147-4.647,8.53-9.083,13.748-14.558
	c1.5,3.966,2.936,6.725,3.577,9.657c1.588,7.259,2.374,14.715,4.282,21.879C471.057,151.695,463.701,156.581,457.628,161.779z
	 M500.389,116.434c-0.182,4.205-5.336,8.196-8.216,12.285c-0.536-0.191-1.072-0.384-1.608-0.575
	c-1.043-4.363-1.79-8.822-3.197-13.064c-2.209-6.647-5.021-13.095-7.222-19.744c-0.553-1.668-0.437-4.32,0.559-5.596
	c3.315-4.254,7.17-8.088,11.794-13.151C498.174,90.535,500.949,103.375,500.389,116.434z M532.646,85.468
	c-0.075,3.685-5.585,7.258-9.316,11.74c-2.114-7.845-3.845-14.475-5.706-21.065c-0.651-2.307-1.641-4.515-2.444-6.78
	c-1.233-3.475-4.487-8.284-3.258-10.18c3.088-4.766,8.202-8.218,13.291-12.923C530.947,59.994,532.909,72.717,532.646,85.468z"/>
</svg>
