<?xml version="1.0" encoding="utf-8"?>
<!-- Generator: Adobe Illustrator 16.0.0, SVG Export Plug-In . SVG Version: 6.00 Build 0)  -->
<!DOCTYPE svg PUBLIC "-//W3C//DTD SVG 1.1//EN" "http://www.w3.org/Graphics/SVG/1.1/DTD/svg11.dtd">
<svg version="1.1" id="Layer_1" xmlns="http://www.w3.org/2000/svg" xmlns:xlink="http://www.w3.org/1999/xlink" x="0px" y="0px"
	 width="24px" height="24px" viewBox="0 0 24 24" enable-background="new 0 0 24 24" xml:space="preserve">
<path fill="#FFC527" d="M20,2H4C2.346,2,1,3.346,1,5v10c0,1.654,1.346,3,3,3h7v2H8c-0.552,0-1,0.447-1,1s0.448,1,1,1h8
	c0.553,0,1-0.447,1-1s-0.447-1-1-1h-3v-2h7c1.654,0,3-1.346,3-3V5C23,3.346,21.654,2,20,2z M21,15c0,0.552-0.448,1-1,1H4
	c-0.551,0-1-0.448-1-1V5c0-0.551,0.449-1,1-1h16c0.552,0,1,0.449,1,1V15z"/>
</svg>
