<?xml version="1.0" encoding="utf-8"?>
<!-- Generator: Adobe Illustrator 16.0.0, SVG Export Plug-In . SVG Version: 6.00 Build 0)  -->
<!DOCTYPE svg PUBLIC "-//W3C//DTD SVG 1.1//EN" "http://www.w3.org/Graphics/SVG/1.1/DTD/svg11.dtd">
<svg version="1.1" id="Layer_1" xmlns="http://www.w3.org/2000/svg" xmlns:xlink="http://www.w3.org/1999/xlink" x="0px" y="0px"
	 width="680.314px" height="680.314px" viewBox="-84.188 -84.188 680.314 680.314"
	 enable-background="new -84.188 -84.188 680.314 680.314" xml:space="preserve">
<title></title>
<g id="icomoon-ignore">
</g>
<path d="M455.887,529.87L455.887,529.87l-80.454-239.785c-3.545-10.641-10.715-19.07-19.679-24.408l-25.357-76.074
	c15.247-14.479,24.787-34.921,24.787-57.557V-62.555c0-3.194-1.422-6.22-3.878-8.258c-2.458-2.039-5.693-2.884-8.833-2.291
	c-1.064,0.199-26.354,5.164-51.277,29.31c-29.951,29.016-42.411,68.983-46.882,105.173C231.038,3.305,229.281-61.936,229.261-62.815
	c-0.113-4.634-3.188-8.671-7.623-10.012c-4.433-1.346-9.232,0.314-11.894,4.109c-1.853,2.641-44.833,65.904-13.393,190.625v10.136
	c0,22.367,9.31,42.592,24.241,57.04l-25.528,76.586c-8.961,5.333-16.131,13.762-19.675,24.396L94.921,529.887
	c-3.808,11.42-2.938,23.643,2.447,34.414c5.384,10.77,14.64,18.796,26.062,22.602c4.622,1.543,9.421,2.323,14.258,2.323
	c19.422,0,36.604-12.389,42.748-30.811l70.326-209.591h49.29l70.316,209.573c6.152,18.441,23.333,30.829,42.755,30.829
	c4.84,0,9.636-0.783,14.26-2.323c11.423-3.807,20.678-11.834,26.062-22.603C458.827,553.534,459.7,541.309,455.887,529.87z
	 M211.173-12.025c0.584,5.938,1.27,12.221,2.069,18.745c5.212,42.491,12.999,77.064,23.192,103.148h-20.92
	C203.035,56.393,205.402,15.703,211.173-12.025z M217.815,132.045v-0.715h24.346c-0.007,0.241-0.021,0.476-0.021,0.715
	c0,18.542,15.085,33.626,33.627,33.626c18.54,0,33.625-15.083,33.625-33.626S294.307,98.42,275.767,98.42
	c-4.29,0-8.387,0.816-12.163,2.284v-3.001c0-54.875,14.378-98.155,41.582-125.158c10.321-10.246,20.747-16.41,28.529-19.999v179.498
	c0,31.954-25.995,57.95-57.948,57.95C243.812,189.996,217.815,164.001,217.815,132.045z M263.603,132.045
	c0-6.706,5.456-12.163,12.164-12.163c6.707,0,12.161,5.457,12.161,12.163c0,6.707-5.454,12.162-12.161,12.162
	C269.058,144.208,263.603,138.752,263.603,132.045z M242.984,266.719L242.984,266.719c-3.253-2.141-6.799-3.878-10.593-5.143
	c-4.167-1.386-8.396-2.115-12.581-2.267l19.001-57.005c7.104,3.752,14.84,6.451,23.006,7.904L242.984,266.719z M257.965,327.362
	l2.941-8.768c3.614-10.843,3.007-22.403-1.672-32.763l16.173-48.522l16.172,48.522c-4.674,10.359-5.283,21.92-1.664,32.784
	l2.938,8.746H257.965L257.965,327.362z M318.417,261.577c-3.788,1.264-7.334,3-10.584,5.141l-18.796-56.389
	c8.184-1.385,15.939-4.02,23.071-7.71l18.898,56.695C326.819,259.463,322.591,260.191,318.417,261.577z"/>
</svg>
