<?xml version="1.0" encoding="utf-8"?>
<!-- Generator: Adobe Illustrator 16.0.0, SVG Export Plug-In . SVG Version: 6.00 Build 0)  -->
<!DOCTYPE svg PUBLIC "-//W3C//DTD SVG 1.1//EN" "http://www.w3.org/Graphics/SVG/1.1/DTD/svg11.dtd">
<svg version="1.1" id="Layer_1" xmlns="http://www.w3.org/2000/svg" xmlns:xlink="http://www.w3.org/1999/xlink" x="0px" y="0px"
	 width="510.236px" height="510.236px" viewBox="0 0 510.236 510.236" enable-background="new 0 0 510.236 510.236"
	 xml:space="preserve">
<path fill-rule="evenodd" clip-rule="evenodd" d="M251.434,495.236c-10.663-2.058-21.252-4.718-32.005-6.063
	c-39.65-4.964-76.5-18.269-110.414-38.807C88.221,437.774,68.003,435.182,45.471,444c-10.667,4.176-22.146,6.279-33.837,9.482
	c0-16.585,0-32.548,0-48.509c0-15.574-0.096-31.15,0.116-46.722c0.029-2.149,0.958-5.334,2.523-6.262
	c25.261-14.96,51.558-27.427,80.898-32.203c36.643-5.967,69.64,3.411,99.761,24.102c9.169,6.298,18.199,13.01,26.323,20.572
	c12.905,12.011,28.568,16.015,45.226,18.682c14.69,2.353,29.393,5.11,43.743,8.979c11.113,2.996,15.674,10.213,15.587,20.265
	c-0.066,7.636-4.771,13.042-12.336,13.104c-25.229,0.203-50.49,0.868-75.685-0.102c-21.37-0.82-40.839-9.239-59.419-19.426
	c-9.572-5.248-18.948-10.855-29.341-16.835c0.664,2.256,0.977,3.748,1.53,5.143c11.443,28.864,35.197,41.477,63.506,48.095
	c20.255,4.735,40.842,5.067,61.48,4.648c12.202-0.248,24.401-0.638,36.603-0.946c16.115-0.407,28.069-9.485,32.661-24.825
	c4.578-15.299-0.056-28.854-13.593-37.98c-5.328-3.594-11.332-6.188-17.459-9.466c1.292-0.795,2.565-1.685,3.931-2.401
	c13.204-6.951,26.243-14.253,39.715-20.64c6.538-3.099,13.765-5.264,20.912-6.438c11.543-1.898,18.59,2.737,22.141,13.56
	c2.649-1.06,5.189-2.464,7.908-3.08c5.872-1.329,11.833-3.125,17.763-3.139c9.017-0.021,13.27,4.358,15.447,14.178
	c5.298-2.14,10.337-4.961,15.736-6.17c7.637-1.711,15.714-3.772,23.292-2.923c13.563,1.523,19.713,15.303,12.776,27.083
	c-2.488,4.225-6.02,8.437-10.106,11.026c-43.309,27.439-85.842,56.494-134.711,73.596c-26.925,9.422-54.402,17.265-81.623,25.841
	c-0.58,0.183-1.076,0.625-1.61,0.947C260.698,495.236,256.064,495.236,251.434,495.236z"/>
<path fill-rule="evenodd" clip-rule="evenodd" d="M440.547,325.397c-9.086,0-17.178-0.063-25.269,0.026
	c-4.716,0.051-4.054-3.271-4.057-6.152c-0.028-23.78-0.022-47.562-0.028-71.343c-0.005-24.202-0.124-48.405,0.089-72.605
	c0.039-4.363-1.467-6.879-5.029-9.16c-49.409-31.644-98.76-63.377-148.063-95.184c-3.131-2.019-5.52-1.903-8.582,0.071
	c-49.487,31.921-99.01,63.787-148.609,95.533c-3.555,2.274-4.367,4.988-4.354,8.884c0.115,36.619-0.074,73.239,0.222,109.854
	c0.049,6.093-2.133,8-7.762,8.686c-6.82,0.832-13.517,2.67-21.247,4.277c0-36.283,0-72.095,0-110.062
	c-11.055,6.968-20.511,12.928-30.575,19.272c-5.451-8.454-10.621-16.557-15.884-24.599c-2.401-3.67,0.55-4.765,2.8-6.213
	c18.743-12.066,37.498-24.116,56.244-36.178c6.543-4.211,12.91-8.731,19.665-12.569c4.815-2.736,6.551-6.209,6.498-11.72
	c-0.245-25.25-0.118-50.503-0.1-75.757c0.007-8.198,0.044-8.212,8.505-8.222c13.678-0.018,27.362,0.165,41.035-0.111
	c5.07-0.101,6.532,1.774,6.438,6.636c-0.255,13.043-0.083,26.094-0.081,39.143c0,2.491,0,4.982,0,8.942
	c3.317-1.717,5.686-2.715,7.818-4.081c23.907-15.319,47.894-30.518,71.594-46.15c8.273-5.454,15.696-5.562,23.937-0.231
	c43.087,27.864,86.281,55.564,129.438,83.323c29.184,18.771,58.283,37.675,87.632,56.188c4.874,3.076,5.204,5.268,2.021,9.7
	c-4.891,6.809-9.181,14.049-14.214,21.863c-9.75-6.115-19.229-12.059-30.08-18.864C440.547,235.545,440.547,280.983,440.547,325.397
	z"/>
<path fill-rule="evenodd" clip-rule="evenodd" d="M313.957,267.842c0,22.923-0.119,45.847,0.097,68.77
	c0.046,4.819-1.207,7.864-5.852,9.806c-7.749,3.239-14.994,8.472-23.007,10.055c-7.64,1.508-16.07-0.032-24.002-1.225
	c-8.633-1.296-15.916-5.657-22.876-11.203c-12.79-10.192-26.41-19.333-39.428-29.252c-2.288-1.741-4.7-5.123-4.722-7.767
	c-0.308-36.592-0.161-73.187-0.276-109.779c-0.014-4.262,1.199-5.96,5.729-5.943c36.171,0.145,72.345,0.16,108.517,0.004
	c5-0.022,5.934,2.177,5.91,6.501c-0.127,23.343-0.061,46.688-0.061,70.033C313.975,267.842,313.966,267.842,313.957,267.842z"/>
</svg>
