<?xml version="1.0" encoding="utf-8"?>
<!-- Generator: Adobe Illustrator 16.0.0, SVG Export Plug-In . SVG Version: 6.00 Build 0)  -->
<!DOCTYPE svg PUBLIC "-//W3C//DTD SVG 1.1//EN" "http://www.w3.org/Graphics/SVG/1.1/DTD/svg11.dtd">
<svg version="1.1" id="Layer_1" xmlns="http://www.w3.org/2000/svg" xmlns:xlink="http://www.w3.org/1999/xlink" x="0px" y="0px"
	 width="680.314px" height="680.314px" viewBox="-84.188 -84.188 680.314 680.314"
	 enable-background="new -84.188 -84.188 680.314 680.314" xml:space="preserve">
<title></title>
<g id="icomoon-ignore">
</g>
<path d="M567.344,450.189c-41.813,0-82.875,0-124.205,0c-4.036,43.718-7.983,86.474-12.028,130.291
	c23.935,6.947,12.763-19.184,21.668-26.114c0.428,8.645,0.857,17.439,1.313,26.682c27.399,0,52.791,0,80.806,0
	c0-19.498,0-37.565,0-55.628c4.838,14.97,6.907,30.364,11.068,45.179c1.27,4.504,7.828,9.278,12.825,10.564
	c7.012,1.805,14.828,0.458,20.73,0.458C575.308,536.159,571.349,493.448,567.344,450.189L567.344,450.189z M493.557-3.365
	c0.783,53.146-0.062,106.337,0.091,159.495c0.153,52.903,0.071,105.811,0.071,158.718c0,5.98-0.1,12.392,0.98,18.28
	c6.416,0.743,14.471,0.869,20.889,0.021c1.14-3.873,1.221-8.707,1.224-12.695c0.054-125.223,0.051-250.446,0.022-375.67
	c0-7.475-3.507-21.295-13.73-19.139c-10.752,2.274-9.923,16.706-9.533,24.759C494.322-34.174,493.327-18.79,493.557-3.365
	L493.557-3.365z M567.301,436.989c2.687-29.868-8.108-50.226-31.128-65.26c-5.113-3.334-10.695-10.143-11.081-15.695
	c-0.937-13.438-9.919-14.287-18.904-14.314c-9.41-0.037-19.559-0.352-20.677,14.335c-0.421,5.565-6.013,12.342-11.134,15.66
	c-24.21,15.727-34.594,37.08-29.576,65.272C485.044,436.987,525.465,436.987,567.301,436.989L567.301,436.989z M377.237,131.102
	h-74.342c-4.561,0-8.251,3.698-8.251,8.256v74.328c0,4.557-3.684,8.247-8.246,8.247h-74.351c-4.56,0-8.246,3.705-8.246,8.265v74.341
	c0,4.562-3.691,8.255-8.253,8.255h-74.35c-4.557,0-8.249,3.69-8.249,8.258v74.332c0,4.561-3.69,8.257-8.261,8.257h-74.34
	c-4.558,0-8.248,3.693-8.248,8.248v74.339c0,4.563-3.69,8.254-8.261,8.254h-74.342c-4.557,0-8.248,3.697-8.248,8.26v74.331
	c0,4.554,3.69,8.259,8.248,8.259h417.45c15.771,0,28.543-12.785,28.543-28.544c0-84.33,0-153.979,0-243.985
	c0-133.313,0-50.895,0-173.43c0-4.573-3.688-8.27-8.25-8.27h-0.004V131.102z"/>
</svg>
