<?xml version="1.0" encoding="utf-8"?>
<!-- Generator: Adobe Illustrator 16.0.0, SVG Export Plug-In . SVG Version: 6.00 Build 0)  -->
<!DOCTYPE svg PUBLIC "-//W3C//DTD SVG 1.1//EN" "http://www.w3.org/Graphics/SVG/1.1/DTD/svg11.dtd">
<svg version="1.1" id="Layer_1" xmlns="http://www.w3.org/2000/svg" xmlns:xlink="http://www.w3.org/1999/xlink" x="0px" y="0px"
	 width="1024px" height="1024px" viewBox="0 0 1024 1024" enable-background="new 0 0 1024 1024" xml:space="preserve">
<title></title>
<g id="icomoon-ignore">
</g>
<path d="M995.753,30.186L995.753,30.186C968.223,2.655,928.658-5.468,892.5,8.989l-549.707,219.89
	c-29.969,11.987-51.734,38.019-58.229,69.64c-6.487,31.617,3.26,64.12,26.087,86.947L449.405,524.22l-99.693,99.694
	c-33.946-28.894-85.106-27.344-117.17,4.716L25.291,835.883c-33.723,33.727-33.723,88.596,0,122.318l38.571,38.572
	c16.861,16.86,39.01,25.294,61.159,25.294c22.15,0,44.301-8.433,61.163-25.294L393.431,789.52
	c16.339-16.336,25.335-38.054,25.335-61.158c0-20.764-7.285-40.39-20.612-56.012l99.69-99.689l142.632,142.632
	c18.177,18.173,42.48,28.059,67.593,28.059c6.426,0,12.911-0.648,19.352-1.972c31.616-6.492,57.651-28.258,69.643-58.229
	l219.886-549.712C1031.408,97.284,1023.285,57.719,995.753,30.186z M953.347,107.996L733.461,657.708
	c-4.915,12.29-15.494,15.68-19.813,16.566c-4.324,0.883-15.377,1.937-24.737-7.427L546.28,524.216l108.999-108.999
	c13.375-13.375,13.375-35.062,0-48.437c-13.378-13.372-35.059-13.372-48.437,0l-108.999,109L359.089,337.025
	c-9.36-9.36-8.31-20.416-7.424-24.734c0.887-4.321,4.273-14.897,16.566-19.812L917.94,72.589c3.74-1.494,7.21-2.092,10.37-2.092
	c9.916,0,16.748,5.86,19.004,8.12c2.979,2.98,12.221,13.904,6.031,29.377L953.347,107.996z"/>
</svg>
