<?xml version="1.0" encoding="utf-8"?>
<!-- Generator: Adobe Illustrator 16.0.0, SVG Export Plug-In . SVG Version: 6.00 Build 0)  -->
<!DOCTYPE svg PUBLIC "-//W3C//DTD SVG 1.1//EN" "http://www.w3.org/Graphics/SVG/1.1/DTD/svg11.dtd">
<svg version="1.1" id="Layer_1" xmlns="http://www.w3.org/2000/svg" xmlns:xlink="http://www.w3.org/1999/xlink" x="0px" y="0px"
	 width="680.314px" height="680.314px" viewBox="-84.188 -84.188 680.314 680.314"
	 enable-background="new -84.188 -84.188 680.314 680.314" xml:space="preserve">
<title></title>
<g id="icomoon-ignore">
</g>
<path d="M587.429,535.44L587.429,535.44c-3.188-22.888-6.43-45.787-9.627-68.672c-7.282-52.264-14.543-104.527-21.813-156.791
	c-3.011-21.599-6.051-43.192-9.106-65.025c-23.607,0-46.606,0-70.53,0c0,8.683-0.098,16.918,0.011,25.153
	c0.336,24.977-8.855,46.161-26.13,63.783c-7.37,7.527-15.463,14.423-23.751,20.938c-19.243,15.119-27.797,34.695-27.455,59.063
	c0.487,34.198,1.262,68.462-0.339,102.591c-0.845,17.885,3.86,31.074,18.393,40.841c2.715,1.825,6.146,3.671,9.248,3.692
	c44.515,0.225,89.025,0.143,133.552,0.117c5.099,0,26.53-16.356,27.669-21.214C587.887,538.521,587.629,536.92,587.429,535.44z
	 M407.205,136.437c8.256,0,16.067,0,24.941,0c-7.818,13.552-14.935,25.914-22.095,38.248c-3.153,5.432-3.925,10.894,0.06,16.204
	c4.766,6.348,12.729,6.808,19.91,1.05c13.667-10.964,27.214-22.061,41.867-33.951c1.863,6.224,3.403,11.37,5.031,16.828
	c19.937,0,40.158,0,60.92,0c-0.879-17.263,4.699-30.461,21.365-37.16c1.067-0.433,2.234-2.174,2.271-3.338
	c0.226-6.715,0.112-13.446,0.112-20.652c-51.883,0-102.985,0-154.385,0C407.205,121.239,407.205,128.368,407.205,136.437z
	 M476.835,228.347c22.63,0,44.798,0,67.725,0c-1.802-12.972-3.515-25.251-5.207-37.427c-21.309,0-41.765,0-62.518,0
	C476.835,203.613,476.835,215.782,476.835,228.347z M222.013,259.641h0.006c15.533,0,30.515,0,45.43,0c0-5.385,0-10.006,0-15.501
	c-15.506,0-30.432,0-45.359,0c0-80.189,0-159.476,0-238.63c82.483,0,164.323,0,246.987,0c0,30.859,0,61.139,0,91.298
	c13.231,0,25.624,0,38.133,0c0-41.104,0-81.506,0-122.225c-177.65,0-354.946,0-533.083,0c0,180.382,0,360.057,0,540.531
	c-18.295,0-35.777,0-53.331,0c0,10.479,0,20.152,0,29.996c154.486,0,308.458,0,462.556,0c0-17.958,0-35.384,0-53.604
	c-53.987,0-107.449,0-161.337,0C222.013,413.922,222.013,337.153,222.013,259.641z M182.458,244.347c-15.212,0-29.986,0-45.373,0
	c0,5.16,0,9.761,0,15.186c14.725,0,29.688,0,45.298,0c0,77.508,0,154.242,0,231.541c-56.268,0-112.427,0-169.076,0
	c0-161.865,0-323.425,0-485.556c56.206,0,112.389,0,169.153,0C182.458,84.658,182.458,163.964,182.458,244.347z M111.306,92.979
	c-2.537-2.633-5.673-5.866-8.208-8.481c-23.857,23.794-47.41,47.291-70.616,70.429c2.655,2.825,5.877,6.238,8.116,8.629
	C64.313,139.884,87.868,116.368,111.306,92.979z M93.671,172.991l0.002,0.007c23.727-23.719,47.121-47.116,69.943-69.936
	c-2.744-3.188-5.912-6.879-7.949-9.24c-23.824,23.715-47.231,47.01-69.993,69.668C88.218,166.521,91.259,170.132,93.671,172.991z
	 M148.234,57.132v-0.006c-2.927-3.419-6.077-7.113-8.029-9.398c-8.036,7.635-15.543,14.761-23.303,22.135
	c2.948,2.942,6.108,6.09,9.227,9.205C134.092,71.157,141.46,63.852,148.234,57.132z"/>
</svg>
