<?xml version="1.0" encoding="utf-8"?>
<!-- Generator: Adobe Illustrator 16.0.0, SVG Export Plug-In . SVG Version: 6.00 Build 0)  -->
<!DOCTYPE svg PUBLIC "-//W3C//DTD SVG 1.1//EN" "http://www.w3.org/Graphics/SVG/1.1/DTD/svg11.dtd">
<svg version="1.1" id="Layer_1" xmlns="http://www.w3.org/2000/svg" xmlns:xlink="http://www.w3.org/1999/xlink" x="0px" y="0px"
	 width="1024px" height="1024px" viewBox="0 0 1024 1024" enable-background="new 0 0 1024 1024" xml:space="preserve">
<title></title>
<g id="icomoon-ignore">
</g>
<g>
	<path d="M941.472,277.697H131.514c-12.397,0-21.718,11.307-19.353,23.477l36.303,186.802c-4.917,4.397-9.73,8.893-14.422,13.503
		c-4.868,4.786-9.605,9.696-14.178,14.758c-13.174,14.589-24.995,30.416-34.784,48.033c-28.688,51.632-30.598,112.826-0.284,163.878
		c20.309,34.202,53.644,58.24,90.397,72.793c6.018,2.381,12.127,4.504,18.285,6.382c5.955,1.814,11.956,3.389,17.966,4.736
		c2.523,0.566,5.05,1.104,7.572,1.591c18.631,3.572,37.548,5.1,56.514,5.1c39.127,0,78.501-6.489,116.264-14.881
		c126.154-28.033,243.021-100.464,326.098-199.375c2.664,0.39,5.382,0.594,8.14,0.594c1.541,0,3.096-0.063,4.657-0.194
		c30.662-2.595,53.418-29.554,50.825-60.216c-0.254-3.021-0.76-5.959-1.47-8.81c-3.505-14.095-12.302-25.904-24.017-33.416
		c-8.711-5.584-19.024-8.801-29.972-8.801c-1.575,0-3.159,0.065-4.76,0.2c-19.046,1.61-35.037,12.628-43.801,28.089
		c-5.345,9.43-8.005,20.511-7.022,32.127c0.249,2.937,0.748,5.789,1.428,8.564c0.388,1.582,0.818,3.146,1.335,4.669
		c-61.666,73.032-140.722,127.732-229.989,160.862c-50.604,18.781-95.427,28.501-149.62,31.722
		c-6.757,0.402-13.27,0.618-19.646,0.618c-20.353,0-39.37-2.213-60.895-7.719c-4.828-1.234-9.486-2.707-14.011-4.386
		c-6.524-2.425-12.75-5.302-18.722-8.622c-6.837-3.803-13.347-8.176-19.592-13.107c-1.993-1.574-3.965-3.198-5.907-4.884
		c-2.171-1.883-4.234-3.884-6.297-5.886c-0.071-0.068-3.399-3.688-3.848-4.115c-3.349-3.918-6.408-8.073-9.319-12.321
		c-1.602-2.338-3.052-4.772-4.499-7.211c-0.271-0.458-0.499-0.838-0.697-1.163c-0.194-0.454-0.518-1.158-1.016-2.201
		c-2.851-5.979-4.982-12.267-6.778-18.63c-0.141-0.498-0.261-0.914-0.364-1.271c-0.063-0.542-0.199-1.456-0.45-2.917
		c-0.533-3.113-0.809-6.268-1.086-9.41c-0.276-3.136-0.305-6.289-0.333-9.434c0.017-0.865,0.031-1.537,0.041-2.054
		c0.158-1.958,0.349-3.914,0.594-5.862c0.713-6.295,2.077-12.502,3.615-18.639c-0.004,0.016-0.005,0.023-0.004,0.023
		c0.021,0,1.814-5.924,1.799-6.132c1.29-3.669,2.763-7.272,4.283-10.85c1.395-3.277,2.901-6.48,4.5-9.618
		c3.788-7.434,8.128-14.485,12.922-21.213c4.238-5.949,8.834-11.645,13.715-17.139l29.443,151.51
		c9.462,6.046,19.357,10.319,30.298,13.117c18.05,4.617,34.273,6.674,52.604,6.674c5.542,0,11.317-0.185,17.661-0.56
		c50.046-2.977,91.904-11.854,139.964-29.692c41.996-15.586,81.645-36.291,117.845-61.543c30.336-21.159,58.277-45.539,83.3-72.645
		c1.495-1.62,2.982-3.245,4.456-4.883c-0.026-0.276-0.051-0.556-0.074-0.833c-1.004-11.852,0.392-23.358,3.748-34.064
		c10.513-33.555,40.454-59.172,77.604-62.315c2.514-0.213,5.063-0.319,7.576-0.319c22.287,0,43.642,8.304,60.132,23.383
		c0.808,0.742,1.59,1.506,2.371,2.272c9.781,9.622,17.108,21.244,21.576,33.998c2.468,7.048,4.081,14.429,4.722,22.016
		c4.144,48.999-32.349,92.235-81.354,96.381c-0.188,0.016-0.375,0.029-0.564,0.044c-41.596,47.011-90.118,87.666-144.441,121
		c-59.599,36.569-123.34,62.563-189.445,77.253c-48.132,10.695-87.381,15.677-123.522,15.677c-19.897,0-39.099-1.59-57.194-4.696
		l31.195,160.525c1.801,9.264,9.915,15.954,19.354,15.954h535.21c9.441-0.004,17.558-6.694,19.357-15.958l0.001,0.005
		l137.373-706.868C963.192,289.004,953.869,277.697,941.472,277.697z"/>
	<path d="M421.873,40.157c63.435,0,123.254,21.594,168.438,60.804l7.167,6.22l9.357-1.59c15.052-2.559,30.456-3.856,45.784-3.856
		c105.074,0,194.571,59.69,226.893,142.5h42.652c-12.904-41.258-37.559-79.012-72.465-110.007
		c-52.759-46.849-122.751-72.649-197.081-72.649c-14.435-0.001-28.936,1.003-43.223,2.988h-0.001
		C557.866,22.862,491.666,0,421.873,0c-74.329,0-144.321,25.801-197.08,72.649c-51.688,45.896-80.908,106.609-82.76,171.584h40.187
		C186.198,131.109,292.169,40.157,421.873,40.157z"/>
</g>
</svg>
